<svg width="56" height="56" viewBox="0 0 56 56" fill="none" xmlns="http://www.w3.org/2000/svg">
<path d="M7 45.5V20.5C7 18.5109 7.79074 16.6038 9.19727 15.1973C10.6038 13.7907 12.5109 13 14.5 13H19.5C20.8807 13 22 14.1193 22 15.5C22 16.8807 20.8807 18 19.5 18H14.5C13.837 18 13.2013 18.2636 12.7324 18.7324C12.2636 19.2013 12 19.837 12 20.5V45.5C12 46.163 12.2636 46.7987 12.7324 47.2676C13.2013 47.7364 13.837 48 14.5 48H32C32.663 48 33.2987 47.7364 33.7676 47.2676C34.2364 46.7987 34.5 46.163 34.5 45.5V40.5C34.5 39.1193 35.6193 38 37 38C38.3807 38 39.5 39.1193 39.5 40.5V45.5C39.5 47.4891 38.7093 49.3962 37.3027 50.8027C35.8962 52.2093 33.9891 53 32 53H14.5C12.5109 53 10.6038 52.2093 9.19727 50.8027C7.79074 49.3962 7 47.4891 7 45.5Z" fill="#3C4DEC"/>
<path d="M33.25 3L33.4877 3.01422C33.9411 3.06769 34.3632 3.27235 34.6861 3.59518C35.0089 3.91801 35.2136 4.34018 35.267 4.79359L35.2812 5.03125V13.1562L35.2914 13.4609C35.3641 14.4282 35.7804 15.3375 36.4652 16.0244C37.1499 16.7114 38.0579 17.1307 39.0248 17.2066L39.3438 17.2188H47.4688L47.7064 17.233C48.1598 17.2864 48.582 17.4911 48.9048 17.8139C49.2277 18.1368 49.4323 18.5589 49.4858 19.0123L49.5 19.25V37.5312C49.5001 39.0856 48.9062 40.5812 47.8399 41.7121C46.7736 42.843 45.3154 43.5237 43.7638 43.6148L43.4062 43.625H23.0938C21.5394 43.6251 20.0438 43.0312 18.9129 41.9649C17.782 40.8986 17.1013 39.4404 17.0102 37.8888L17 37.5312V9.09375C16.9999 7.53942 17.5938 6.0438 18.6601 4.91291C19.7264 3.78202 21.1846 3.10134 22.7362 3.01016L23.0938 3H33.25ZM33.25 22.2969C32.7113 22.2969 32.1946 22.5109 31.8137 22.8918C31.4328 23.2727 31.2188 23.7894 31.2188 24.3281V26.3594H29.1875C28.6488 26.3594 28.1321 26.5734 27.7512 26.9543C27.3703 27.3352 27.1562 27.8519 27.1562 28.3906C27.1562 28.9293 27.3703 29.446 27.7512 29.8269C28.1321 30.2079 28.6488 30.4219 29.1875 30.4219H31.2188V32.4531C31.2188 32.9918 31.4328 33.5085 31.8137 33.8894C32.1946 34.2704 32.7113 34.4844 33.25 34.4844C33.7887 34.4844 34.3054 34.2704 34.6863 33.8894C35.0672 33.5085 35.2812 32.9918 35.2812 32.4531V30.4219H37.3125C37.8512 30.4219 38.3679 30.2079 38.7488 29.8269C39.1297 29.446 39.3438 28.9293 39.3438 28.3906C39.3438 27.8519 39.1297 27.3352 38.7488 26.9543C38.3679 26.5734 37.8512 26.3594 37.3125 26.3594H35.2812V24.3281C35.2812 23.7894 35.0672 23.2727 34.6863 22.8918C34.3054 22.5109 33.7887 22.2969 33.25 22.2969Z" fill="#3C4DEC"/>
<path d="M48.645 12.3025C48.9603 12.6173 48.7373 13.1562 48.2917 13.1562H39.8438C39.5676 13.1562 39.3438 12.9324 39.3438 12.6562V4.22013C39.3438 3.77485 39.882 3.55169 40.1971 3.86633L48.645 12.3025Z" fill="#3C4DEC"/>
</svg>
